<svg width="371" height="246" viewBox="0 0 371 246" fill="none" xmlns="http://www.w3.org/2000/svg">
<g clip-path="url(#clip0_588_271)">
<path d="M187.945 69.1408C184.637 63.6775 180.718 57.8442 174.579 56.0603C167.47 53.9944 160.167 58.0984 153.972 62.1482C135.447 74.2599 117.607 87.3855 100.533 101.465L100.552 101.677C113.844 100.762 127.136 99.8463 140.429 98.931C150.032 98.2696 159.966 97.517 168.453 92.9804C171.674 91.2589 174.813 88.9594 178.462 88.7991C182.996 88.6001 186.95 91.7621 190.057 95.0657C208.434 114.608 213.752 144.492 234.37 161.661C221.369 129.643 205.846 98.7066 187.945 69.1408Z" fill="#ECE5D1"/>
<path d="M300.911 234.891C298.879 232.328 298.048 231.728 296.044 229.142C279.721 208.061 264.379 186.268 250.017 163.763C240.263 148.479 230.992 132.901 222.204 117.029C218.021 109.484 213.952 101.879 209.998 94.215C206.929 88.2725 203.929 82.2945 200.998 76.281C200.16 74.5634 199.345 72.8379 198.535 71.1085C196.625 67.0416 194.75 62.9549 192.738 58.9433C190.445 54.371 187.653 49.5775 183.442 46.5056C181.525 45.0502 179.233 44.1697 176.834 43.9668C173.406 43.7457 170.243 45.1592 167.269 46.7031C145.514 58.0312 125.146 72.2339 106.724 88.3949C88.2542 104.592 71.7455 122.891 57.5341 142.919C57.0994 143.539 56.0712 142.947 56.5101 142.323C58.2381 139.883 60.0003 137.469 61.7968 135.082C84.1348 105.415 111.525 79.9037 142.714 59.7132C147.961 56.3176 153.307 53.0811 158.752 50.0039C161.496 48.4522 164.252 46.9202 167.056 45.483C169.804 44.0734 172.722 42.8059 175.862 42.7585C186.546 42.5927 192.078 54.675 195.877 62.8049C197.072 65.3635 198.28 67.9142 199.503 70.457C204.126 80.111 208.926 89.6768 213.904 99.1545C216.977 105.006 220.116 110.824 223.323 116.607C233.303 134.616 243.911 152.26 255.146 169.54C270.029 192.429 284.794 212.649 301.749 234.054C302.216 234.646 301.382 235.491 300.911 234.891Z" fill="#ECE5D1"/>
<path d="M105.668 82.4287C105.047 81.7377 104.43 81.0467 103.805 80.3557C98.8785 74.9147 93.592 69.5369 86.8263 66.4176C83.6004 64.8834 80.0789 64.0682 76.506 64.0288C72.8129 64.0407 69.2028 65.008 65.7904 66.3624C64.1771 67.006 62.5993 67.7364 61.0455 68.5143C59.27 69.4066 57.5262 70.3582 55.7904 71.3177C52.5321 73.1182 49.3161 74.9977 46.1424 76.9561C39.8275 80.8532 33.7105 85.0478 27.7912 89.5398C24.7227 91.8695 21.7175 94.2754 18.7756 96.7577C16.0394 99.0636 13.3585 101.431 10.733 103.861C10.1715 104.378 9.33322 103.541 9.89467 103.024C10.5866 102.38 11.2865 101.741 11.9864 101.109C13.9635 99.3242 15.9722 97.5737 18.0126 95.8574C21.7333 92.7223 25.5504 89.7083 29.4638 86.8154C35.5492 82.3142 41.8442 78.1183 48.3486 74.2277C51.599 72.2851 54.8941 70.424 58.234 68.6446C59.2424 68.1076 60.2626 67.5824 61.2946 67.0849C63.6362 65.9055 66.0693 64.9164 68.5701 64.1275C72.1127 62.9831 75.8608 62.6155 79.5587 63.0496C83.1291 63.5682 86.569 64.7565 89.6971 66.5519C96.34 70.2595 101.492 75.9926 106.506 81.5877C107.012 82.1562 106.178 82.9972 105.668 82.4287Z" fill="#ECE5D1"/>
<path d="M241.778 138.812L257.696 132.998L265.6 130.112C268.174 129.171 270.742 128.101 273.402 127.428C275.715 126.769 278.17 126.8 280.465 127.518C282.511 128.274 284.385 129.434 285.973 130.928C287.596 132.42 289.107 134.031 290.491 135.746C292.212 137.811 293.907 139.897 295.61 141.977C302.639 150.56 309.621 159.18 316.557 167.837C323.493 176.495 330.383 185.189 337.226 193.92C344.086 202.672 350.899 211.461 357.665 220.286C358.494 221.367 359.322 222.449 360.149 223.531C360.606 224.129 361.637 223.539 361.174 222.933C354.358 214.019 347.495 205.141 340.584 196.3C333.656 187.438 326.681 178.613 319.658 169.826C312.634 161.039 305.564 152.29 298.445 143.58C296.672 141.41 294.896 139.242 293.117 137.077C291.616 135.25 290.132 133.404 288.486 131.704C285.464 128.583 281.689 125.825 277.17 125.751C274.513 125.707 271.942 126.549 269.473 127.44C266.812 128.402 264.157 129.381 261.5 130.352L245.47 136.206L241.463 137.67C240.752 137.929 241.059 139.075 241.778 138.812Z" fill="#ECE5D1"/>
<path d="M84.7316 73.264C76.6424 69.1126 66.283 69.9257 58.8496 75.1123C73.0283 77.555 87.0518 80.8233 100.848 84.9006C95.1192 81.5479 90.6376 76.2951 84.7316 73.264Z" fill="#ECE5D1"/>
<path d="M58.7702 75.0981L57.2129 76.3621C57.7396 75.9197 58.2873 75.505 58.8498 75.1124C58.8232 75.1079 58.7967 75.1027 58.7702 75.0981Z" fill="#ECE5D1"/>
<path d="M285.374 138.87C283.807 136.965 282.113 134.971 279.769 134.197L277.581 134.283C294.238 163.675 316.735 189.357 343.69 209.753C324.251 186.125 304.813 162.498 285.374 138.87Z" fill="#ECE5D1"/>
<path d="M149.305 123.158C150.317 126.832 152.599 130.029 155.745 132.185C156.961 133.012 158.401 133.805 158.817 135.215C159.036 136.114 158.901 137.062 158.44 137.864C157.98 138.656 157.42 139.385 156.774 140.035L156.715 140.256C153.697 138.469 150.825 136.21 149.158 133.127C147.49 130.044 147.257 126.003 149.305 123.158Z" fill="#ECE5D1"/>
<path d="M249.805 210.592C250.817 214.266 253.099 217.464 256.245 219.619C257.461 220.446 258.901 221.24 259.317 222.649C259.536 223.548 259.401 224.496 258.94 225.298C258.48 226.09 257.92 226.82 257.274 227.47L257.215 227.69C254.197 225.904 251.325 223.644 249.658 220.561C247.99 217.478 247.757 213.438 249.805 210.592Z" fill="#ECE5D1"/>
<path d="M49.2363 204.562C50.249 208.236 52.5303 211.434 55.6766 213.589C56.893 214.416 58.3322 215.21 58.7483 216.619C58.9672 217.518 58.8323 218.466 58.3715 219.268C57.9115 220.06 57.3518 220.79 56.706 221.44L56.6471 221.66C53.6285 219.874 50.7567 217.614 49.0892 214.531C47.4217 211.448 47.189 207.408 49.2363 204.562Z" fill="#ECE5D1"/>
<path d="M280.04 43.9326C292.189 43.9326 302.038 34.0979 302.038 21.9663C302.038 9.83464 292.189 0 280.04 0C267.891 0 258.042 9.83464 258.042 21.9663C258.042 34.0979 267.891 43.9326 280.04 43.9326Z" fill="#be123c"/>
<path d="M319.737 5.11283C309.076 3.67384 296.905 9.42799 294.142 19.8102C293.445 17.9643 292.179 16.3871 290.527 15.3067C288.874 14.2263 286.92 13.6985 284.947 13.7996C282.974 13.9007 281.085 14.6254 279.551 15.8691C278.018 17.1128 276.92 18.811 276.417 20.7185L277.638 21.5914C300.484 26.5249 324.134 26.4181 346.934 21.2785C339.519 13.496 330.399 6.55178 319.737 5.11283Z" fill="#F0F0F0"/>
<path d="M274.017 34.4012C263.356 32.9622 251.184 38.7163 248.421 49.0986C247.725 47.2526 246.459 45.6755 244.806 44.5951C243.153 43.5146 241.199 42.9868 239.226 43.0879C237.254 43.189 235.364 43.9137 233.831 45.1574C232.297 46.4011 231.2 48.0993 230.696 50.0068L231.917 50.8797C254.763 55.8132 278.413 55.7064 301.214 50.5668C293.798 42.7844 284.678 35.8401 274.017 34.4012Z" fill="#F0F0F0"/>
<path d="M367.066 39.9392C367.022 39.9393 366.978 39.9325 366.936 39.919C252.89 3.90372 152.374 8.61335 88.1337 18.9063C79.3912 20.3065 70.6254 21.9238 62.0797 23.7135C59.898 24.1699 57.6346 24.659 55.3524 25.1684C52.6269 25.7745 49.9376 26.3987 47.3589 27.0229C46.2452 27.2862 45.1533 27.5516 44.0831 27.8191C42.462 28.2187 40.8172 28.6351 39.0539 29.0927C37.0837 29.6 35.0818 30.1321 33.1027 30.6743C33.0955 30.6768 33.0881 30.6789 33.0806 30.6806L33.0808 30.681C30.8454 31.2905 28.6218 31.9176 26.4714 32.5439C25.3076 32.8796 24.1838 33.2106 23.1074 33.5374C22.9871 33.5707 22.8805 33.6026 22.7725 33.6354L22.5412 33.7057C22.4073 33.7465 22.275 33.7864 22.1428 33.8243L22.1343 33.8268L22.1346 33.8272L21.7845 33.9358C21.3671 34.062 20.9598 34.1852 20.5592 34.308C9.97224 37.567 4.15224 39.8854 4.09475 39.9081C4.04217 39.9291 3.98596 39.9396 3.92932 39.939C3.87268 39.9383 3.81672 39.9266 3.76464 39.9043C3.71256 39.8821 3.66537 39.8498 3.62578 39.8094C3.58619 39.7689 3.55497 39.7211 3.53389 39.6686C3.51282 39.6161 3.50231 39.5599 3.50296 39.5034C3.50361 39.4468 3.51541 39.3909 3.53768 39.3389C3.55996 39.2869 3.59227 39.2398 3.63278 39.2003C3.67329 39.1607 3.7212 39.1296 3.77378 39.1085C3.8317 39.0858 9.68013 36.7556 20.3056 33.4844C20.7077 33.3612 21.1161 33.238 21.5347 33.1114L21.8599 33.0104C21.8711 33.0062 21.8822 33.0028 21.8936 32.9995C22.0252 32.962 22.1567 32.9221 22.2902 32.8817L22.5219 32.8115C22.6373 32.7766 22.751 32.7421 22.8675 32.7101C23.9365 32.3854 25.0641 32.0535 26.2309 31.7166C28.3821 31.0899 30.6078 30.4627 32.8449 29.8524C32.8519 29.8499 32.859 29.8482 32.866 29.8461C34.852 29.3023 36.8613 28.7676 38.8378 28.2587C40.6038 27.8006 42.2518 27.3834 43.8756 26.983C44.9504 26.7159 46.0444 26.4499 47.1578 26.1851C49.7394 25.56 52.4342 24.935 55.1645 24.3276C57.4503 23.8178 59.7175 23.3274 61.9028 22.8706C70.4618 21.0779 79.2413 19.4581 87.997 18.0558C152.329 7.74816 252.989 3.03093 367.196 39.098C367.294 39.1289 367.378 39.1939 367.433 39.2813C367.487 39.3686 367.508 39.4725 367.493 39.5741C367.477 39.6758 367.425 39.7685 367.347 39.8354C367.269 39.9024 367.169 39.9392 367.066 39.9392Z" fill="#CCCCCC"/>
<path d="M113.435 180.83C113.286 180.394 113.034 180 112.702 179.68C112.579 179.566 112.446 179.464 112.305 179.374C111.179 178.625 109.497 178.457 108.427 179.374C108.32 179.467 108.22 179.57 108.13 179.68C107.811 180.072 107.483 180.455 107.146 180.83C106.594 181.459 106.029 182.066 105.438 182.656C105.27 182.82 105.102 182.988 104.929 183.151C104.83 183.25 104.731 183.345 104.632 183.44C104.252 183.802 103.864 184.151 103.471 184.495C103.264 184.68 103.057 184.861 102.846 185.038C102.531 185.301 102.216 185.563 101.897 185.817C101.867 185.839 101.837 185.861 101.806 185.886C101.798 185.891 101.794 185.899 101.785 185.904C101.781 185.904 101.776 185.904 101.772 185.912C101.76 185.917 101.75 185.924 101.742 185.934C101.647 185.998 101.582 186.041 101.535 186.08C101.552 186.072 101.569 186.059 101.586 186.05C101.509 186.11 101.427 186.171 101.349 186.231C100.594 186.787 99.8223 187.321 99.033 187.82C97.0801 189.068 95.0289 190.156 92.8995 191.072C92.7572 191.128 92.6105 191.188 92.4639 191.244C86.8888 193.525 80.8411 194.415 74.8441 193.837C74.2316 193.79 73.6191 193.725 73.0066 193.644C72.2992 193.54 71.5962 193.415 70.8974 193.273C68.2372 192.743 65.6343 191.958 63.1248 190.93C59.9857 189.495 57 187.746 54.2136 185.71C53.7822 185.404 53.3466 185.098 52.911 184.801C53.407 183.586 53.8944 182.372 54.3689 181.149C54.6061 180.558 54.8347 179.968 55.059 179.374C56.8231 174.796 58.4794 170.174 60.0667 165.535C61.6713 160.836 63.1852 156.11 64.6086 151.356C64.7553 150.874 64.8976 150.391 65.0356 149.909C65.7818 147.398 66.4978 144.881 67.1837 142.359C67.2483 142.113 67.3174 141.872 67.3778 141.626C67.5761 140.903 67.7702 140.179 67.9601 139.456C68.3914 137.823 67.4166 135.872 65.6999 135.48C64.8733 135.269 63.9968 135.386 63.255 135.807C62.5131 136.228 61.9639 136.92 61.723 137.737C61.5375 138.435 61.3521 139.128 61.1623 139.826C60.2522 143.199 59.2946 146.56 58.2896 149.909C58.143 150.391 57.9963 150.874 57.8497 151.356C55.6327 158.653 53.1985 165.876 50.5473 173.025C50.2281 173.891 49.9046 174.754 49.5768 175.614C49.4172 176.036 49.2576 176.458 49.0937 176.88C48.7788 177.711 48.4553 178.543 48.1318 179.374C47.9463 179.861 47.7566 180.347 47.5668 180.83C47.4417 181.136 47.3209 181.441 47.2002 181.743C45.9704 181.302 44.6962 180.996 43.4002 180.83L43.1931 180.804C42.1883 180.683 41.1721 180.692 40.1695 180.83C38.6689 181.005 37.2251 181.507 35.9402 182.3C34.6552 183.093 33.5605 184.159 32.7334 185.421C30.6759 188.656 30.7018 193.282 33.5874 196.03C36.5593 198.859 41.058 198.838 44.5561 197.068C46.4099 196.066 47.9729 194.603 49.0937 192.821C49.5231 192.175 49.9176 191.506 50.2755 190.818C50.3661 190.878 50.4567 190.939 50.5473 191.003C50.8923 191.244 51.2374 191.49 51.5782 191.731C53.5636 193.167 55.6558 194.45 57.8367 195.569C62.5261 197.897 67.574 199.421 72.7694 200.078C72.8858 200.091 72.998 200.108 73.1144 200.121C73.6881 200.195 74.2661 200.251 74.8441 200.298C83.1351 200.922 91.4364 199.228 98.8174 195.405C99.4428 195.082 100.062 194.743 100.676 194.389C101.63 193.837 102.561 193.252 103.471 192.631C103.967 192.295 104.451 191.955 104.929 191.598C107.021 190.059 108.972 188.336 110.757 186.451C111.434 185.74 112.082 185.006 112.702 184.25C113.288 183.631 113.626 182.818 113.651 181.967C113.647 181.578 113.574 181.193 113.435 180.83ZM42.0113 191.089C42.1018 191.025 42.1924 190.956 42.2787 190.887C42.2528 190.952 42.1277 191.025 42.0113 191.089ZM43.3958 189.698C43.2966 189.81 43.206 189.922 43.1068 190.034C42.805 190.371 42.4808 190.688 42.1363 190.982C42.0889 191.025 42.0372 191.068 41.9854 191.107C41.9848 191.107 41.9842 191.107 41.9837 191.107C41.9832 191.107 41.9827 191.107 41.9823 191.108C41.9819 191.108 41.9816 191.109 41.9814 191.109C41.9812 191.11 41.9811 191.11 41.9811 191.111C41.9188 191.139 41.8583 191.17 41.7999 191.206C41.6144 191.318 41.4246 191.421 41.2306 191.516C40.8505 191.656 40.4596 191.764 40.0617 191.839C39.7559 191.861 39.449 191.864 39.1429 191.847H39.1343C38.923 191.801 38.7143 191.743 38.5089 191.675C38.4054 191.623 38.3061 191.563 38.2069 191.503C38.1681 191.468 38.1336 191.434 38.112 191.412C38.0699 191.374 38.031 191.332 37.9956 191.288C37.9956 191.287 37.9955 191.286 37.9953 191.286C37.9951 191.285 37.9948 191.285 37.9944 191.284C37.994 191.284 37.9935 191.284 37.993 191.284C37.9924 191.283 37.9919 191.283 37.9913 191.283C37.9438 191.197 37.8921 191.111 37.8447 191.025C37.8422 191.023 37.8406 191.019 37.8403 191.016C37.8058 190.908 37.7756 190.797 37.7498 190.685C37.7404 190.488 37.7418 190.291 37.7541 190.094C37.8119 189.819 37.8898 189.549 37.987 189.285C38.0743 189.098 38.1737 188.916 38.2846 188.742C38.2932 188.725 38.3364 188.656 38.3838 188.578C38.3881 188.574 38.3881 188.574 38.3881 188.57C38.4528 188.497 38.5175 188.419 38.5865 188.35C38.703 188.221 38.8281 188.109 38.9532 187.993C39.1964 187.834 39.4484 187.688 39.708 187.558C40.1198 187.411 40.5423 187.298 40.9718 187.217C41.6051 187.167 42.2416 187.173 42.874 187.235C43.4729 187.338 44.0638 187.484 44.6424 187.67C44.2917 188.349 43.8924 189.003 43.4476 189.625C43.4303 189.651 43.4131 189.677 43.3958 189.698ZM38.5995 188.281C38.5615 188.342 38.5166 188.398 38.4657 188.449C38.5 188.386 38.5452 188.329 38.5995 188.281Z" fill="#be123c"/>
<path d="M100.469 136.841C100.43 138.194 100.391 139.546 100.352 140.899C100.27 143.901 100.185 146.904 100.098 149.909C100.007 153.29 99.9122 156.67 99.8129 160.048C99.7655 161.793 99.7166 163.537 99.6663 165.281C99.5326 169.98 99.4003 174.678 99.2695 179.374C99.2565 179.861 99.2393 180.343 99.2263 180.83C99.1616 183.16 99.0969 185.49 99.0322 187.82C98.9589 190.349 98.887 192.877 98.8166 195.405C98.7648 197.3 98.7116 199.197 98.657 201.095C98.2688 214.848 97.8806 228.6 97.4924 242.353C97.476 243.204 97.1299 244.017 96.5268 244.619C95.9236 245.221 95.1103 245.567 94.2574 245.583C93.4016 245.576 92.5828 245.234 91.9776 244.629C91.3724 244.025 91.0294 243.207 91.0225 242.353C91.2381 234.617 91.4567 226.882 91.6781 219.146C91.8722 212.151 92.0691 205.157 92.269 198.162C92.3337 195.858 92.3984 193.552 92.4631 191.245C92.5623 187.773 92.6601 184.302 92.7564 180.83C92.7693 180.343 92.7866 179.861 92.7995 179.374C92.8082 178.948 92.8211 178.526 92.834 178.099C93.0238 171.359 93.2136 164.617 93.4034 157.873C93.481 155.22 93.5558 152.565 93.6277 149.909C93.7139 146.881 93.8002 143.855 93.8865 140.83C93.9253 139.499 93.9598 138.172 93.9986 136.841C94.015 135.99 94.3611 135.178 94.9643 134.575C95.5674 133.973 96.3808 133.627 97.2336 133.611C98.0894 133.618 98.9083 133.961 99.5134 134.565C100.119 135.169 100.462 135.987 100.469 136.841Z" fill="#be123c"/>
<path d="M277.93 137.738C274.538 150.564 270.483 163.207 265.783 175.615C264.486 179.038 263.159 182.453 261.741 185.828L262.067 185.056C261.434 186.664 260.625 188.196 259.656 189.627C259.59 189.719 259.523 189.81 259.455 189.901C259.79 189.473 259.854 189.388 259.646 189.647C259.536 189.777 259.428 189.907 259.315 190.033C259.013 190.37 258.689 190.687 258.345 190.982C258.258 191.056 258.17 191.128 258.081 191.199L258.485 190.885C258.438 190.996 258.109 191.143 258.006 191.205C257.674 191.405 257.327 191.581 256.969 191.73L257.742 191.404C257.155 191.64 256.542 191.808 255.917 191.904L256.777 191.789C256.162 191.874 255.539 191.88 254.923 191.809L255.783 191.924C255.279 191.855 254.785 191.722 254.314 191.529L255.087 191.855C254.836 191.745 254.594 191.616 254.363 191.469C254.246 191.393 253.886 191.121 254.356 191.479C254.845 191.852 254.419 191.511 254.319 191.412C254.235 191.33 254.159 191.24 254.077 191.156C253.697 190.766 254.507 191.826 254.248 191.371C254.11 191.142 253.984 190.907 253.87 190.666L254.196 191.437C254.047 191.07 253.942 190.687 253.882 190.295L253.997 191.154C253.935 190.667 253.935 190.175 253.996 189.688L253.88 190.546C253.959 190.003 254.103 189.471 254.309 188.961L253.983 189.733C254.127 189.39 254.297 189.059 254.491 188.743C254.581 188.579 254.686 188.425 254.806 188.282C254.827 188.288 254.258 188.933 254.56 188.608C254.639 188.522 254.713 188.433 254.793 188.348C254.92 188.213 255.057 188.09 255.192 187.962C255.642 187.533 254.561 188.378 255.081 188.039C255.458 187.791 255.855 187.575 256.267 187.393L255.494 187.719C256.185 187.435 256.909 187.241 257.649 187.142L256.789 187.257C257.715 187.15 258.652 187.161 259.575 187.29L258.715 187.174C259.885 187.352 261.029 187.673 262.119 188.131L261.347 187.805C263.671 188.802 265.73 190.281 267.786 191.732C269.771 193.168 271.862 194.45 274.042 195.568C278.732 197.897 283.78 199.422 288.976 200.079C296.427 200.991 303.989 200.019 310.966 197.253C317.944 194.488 324.114 190.016 328.911 184.25C329.496 183.63 329.833 182.817 329.858 181.966C329.852 181.11 329.512 180.291 328.911 179.682C327.724 178.594 325.482 178.286 324.336 179.682C323.25 181.006 322.082 182.261 320.839 183.44C320.259 183.99 319.664 184.523 319.053 185.038C318.704 185.333 318.35 185.622 317.991 185.904C317.822 186.038 317.293 186.395 318.105 185.819C317.919 185.951 317.74 186.095 317.557 186.231C314.84 188.23 311.896 189.902 308.787 191.212L309.56 190.886C306.223 192.284 302.718 193.243 299.134 193.739L299.994 193.623C296.307 194.107 292.571 194.102 288.886 193.607L289.745 193.722C286.06 193.217 282.457 192.237 279.024 190.806L279.797 191.132C276.484 189.668 273.341 187.85 270.421 185.709C268.902 184.585 267.299 183.578 265.628 182.696C263.68 181.703 261.572 181.063 259.4 180.806C255.329 180.328 251.18 181.911 248.942 185.423C246.882 188.656 246.909 193.281 249.794 196.03C252.764 198.861 257.263 198.837 260.765 197.066C264.136 195.36 266.162 191.817 267.586 188.477C270.791 180.958 273.629 173.267 276.273 165.536C278.889 157.887 281.261 150.161 283.389 142.358C283.653 141.391 283.913 140.424 284.169 139.455C284.6 137.823 283.625 135.872 281.909 135.481C281.082 135.269 280.205 135.385 279.463 135.806C278.72 136.227 278.171 136.92 277.93 137.738Z" fill="#be123c"/>
<path d="M310.207 136.841L309.043 178.1L307.884 219.145L307.229 242.353C307.237 243.207 307.58 244.025 308.185 244.629C308.79 245.233 309.609 245.576 310.464 245.583C311.317 245.567 312.131 245.221 312.734 244.619C313.337 244.017 313.683 243.205 313.699 242.353L314.864 201.094L316.022 160.049L316.677 136.841C316.67 135.987 316.327 135.169 315.722 134.565C315.116 133.961 314.298 133.618 313.442 133.611C312.589 133.627 311.776 133.973 311.173 134.575C310.57 135.177 310.224 135.99 310.207 136.841Z" fill="#be123c"/>
<path opacity="0.2" d="M198.235 230.833H199.24V185.16H222.674V184.16H199.24V164.888H217.337C217.071 164.551 216.798 164.218 216.518 163.89H199.24V151.161C198.908 151.02 198.573 150.883 198.235 150.755V163.89H178.544V147.581C178.207 147.596 177.875 147.619 177.54 147.648V163.89H161.831V151.722C161.493 151.871 161.161 152.028 160.831 152.192V163.89H147.626V164.888H160.831V184.16H147.626V185.16H160.831V230.833H161.831V185.16C163.894 185.16 165.937 185.565 167.843 186.353C169.749 187.142 171.481 188.297 172.94 189.754C174.399 191.21 175.556 192.94 176.345 194.843C177.134 196.747 177.54 198.787 177.54 200.847V230.833H178.544V185.16H198.235V230.833ZM161.831 184.16V164.888H177.54V184.16H161.831ZM178.544 184.16V164.888H178.939C181.473 164.888 183.982 165.386 186.324 166.355C188.665 167.324 190.792 168.743 192.584 170.533C194.376 172.322 195.797 174.447 196.767 176.785C197.737 179.123 198.236 181.629 198.236 184.16H178.544Z" fill="black"/>
<path d="M192.1 217.139C190.836 222.772 187.806 227.856 183.452 231.654C183.133 231.93 182.814 232.197 182.482 232.459C181.675 232.533 180.874 232.607 180.079 232.683C179.419 232.744 178.768 232.808 178.121 232.869L178.004 232.881L177.923 232.175L177.595 229.315C176.323 227.242 175.535 224.91 175.288 222.491C175.042 220.072 175.344 217.629 176.171 215.343C177.31 212.276 179.372 209.567 181.399 206.879C184.198 203.167 186.92 199.497 187.019 194.97C188.397 196.73 189.542 198.66 190.427 200.712C189.592 201.104 188.842 201.656 188.218 202.335C188.042 202.529 187.865 202.801 187.985 203.033C188.089 203.231 188.348 203.279 188.572 203.304C189.111 203.36 189.655 203.416 190.194 203.472C190.625 203.52 191.057 203.563 191.488 203.61C192.01 205.321 192.364 207.078 192.545 208.856C192.835 211.623 192.685 214.419 192.1 217.139Z" fill="#be123c"/>
<path d="M206.421 205.85C203.876 207.698 202.388 210.355 201.232 213.284C200.047 213.663 198.982 214.342 198.139 215.257C197.963 215.45 197.786 215.722 197.906 215.954C198.01 216.153 198.269 216.2 198.493 216.226C199.032 216.282 199.576 216.338 200.115 216.394C198.959 219.857 197.898 223.44 195.853 226.365C194.494 228.296 192.721 229.901 190.664 231.064C190.104 231.383 189.525 231.669 188.931 231.921C186.739 232.089 184.59 232.268 182.482 232.459C181.676 232.533 180.875 232.607 180.08 232.683C179.42 232.744 178.768 232.808 178.121 232.868C178.117 232.632 178.117 232.395 178.121 232.158C178.258 225.847 180.583 219.78 184.699 214.99C184.893 214.766 185.092 214.546 185.294 214.326C187.38 212.102 189.832 210.252 192.545 208.856C196.819 206.637 201.61 205.599 206.421 205.85Z" fill="#be123c"/>
<path d="M180.826 230.474L180.33 231.938L180.08 232.683C179.42 232.744 178.769 232.808 178.122 232.869L178.005 232.881C177.289 232.955 176.577 233.028 175.866 233.101C175.68 232.886 175.495 232.666 175.314 232.442C170.811 226.998 168.65 219.996 169.303 212.965C169.955 205.935 173.367 199.448 178.794 194.923C178.225 197.899 178.889 200.75 179.981 203.58C179.864 203.628 179.752 203.675 179.644 203.727C178.809 204.119 178.059 204.671 177.436 205.35C177.259 205.544 177.082 205.816 177.203 206.048C177.306 206.246 177.565 206.294 177.79 206.319C178.329 206.375 178.872 206.431 179.411 206.487C179.843 206.535 180.274 206.578 180.705 206.625C180.908 206.647 181.111 206.668 181.313 206.69C181.344 206.754 181.37 206.815 181.4 206.879C182.629 209.541 183.953 212.216 184.699 214.99C184.886 215.686 185.033 216.392 185.139 217.104C185.472 219.513 185.256 221.966 184.51 224.28C183.763 226.595 182.504 228.712 180.826 230.474Z" fill="#be123c"/>
<path d="M224.243 168.004C220.53 160.771 214.777 154.686 208.011 150.214C201.223 145.748 193.435 143.028 185.339 142.297C184.278 142.201 183.214 142.144 182.148 142.128C180.888 142.109 161.933 147.569 155.583 152.027C149.237 156.43 144.017 162.262 140.343 169.051C136.676 175.878 134.872 183.548 135.113 191.29C135.427 199.08 137.602 206.682 141.455 213.462C145.255 220.22 150.652 225.949 157.174 230.15C163.79 234.365 170.436 245.542 178.247 245.936C186.117 246.334 195.092 235.791 202.27 232.59C209.447 229.362 215.653 224.312 220.267 217.943C224.751 211.702 227.652 204.468 228.721 196.861C229.831 189.072 229.313 181.04 226.65 173.596C225.966 171.683 225.162 169.815 224.243 168.004C223.475 166.494 221.225 165.938 219.817 166.845C219.091 167.291 218.566 167.999 218.349 168.822C218.133 169.645 218.243 170.52 218.656 171.264C219.107 172.151 219.526 173.052 219.914 173.968L219.588 173.197C221.054 176.718 222.051 180.416 222.554 184.196L222.438 183.337C222.972 187.439 222.963 191.592 222.409 195.691L222.525 194.832C221.966 198.931 220.87 202.938 219.267 206.752L219.593 205.98C218.768 207.926 217.806 209.811 216.715 211.622C216.162 212.537 215.575 213.43 214.955 214.302C214.682 214.684 214.402 215.06 214.119 215.435C213.749 215.924 214.622 214.796 214.24 215.276C214.175 215.358 214.111 215.44 214.045 215.521C213.85 215.766 213.651 216.008 213.449 216.248C212.105 217.85 210.637 219.345 209.06 220.72C208.667 221.063 208.268 221.397 207.862 221.724C207.66 221.887 207.46 222.057 207.249 222.209C207.257 222.203 207.93 221.692 207.532 221.989C207.406 222.082 207.282 222.177 207.157 222.269C206.32 222.888 205.461 223.476 204.58 224.032C202.551 225.308 200.423 226.419 198.215 227.354L198.988 227.028C195.18 228.629 191.178 229.723 187.085 230.281L187.945 230.166C183.853 230.718 179.707 230.725 175.613 230.187L176.473 230.303C172.753 229.804 169.114 228.822 165.649 227.381L166.422 227.706C164.415 226.86 162.48 225.853 160.635 224.695C159.722 224.121 158.833 223.511 157.968 222.866C157.845 222.774 157.722 222.68 157.599 222.588C157.204 222.29 157.883 222.807 157.888 222.811C157.659 222.646 157.438 222.47 157.226 222.283C156.808 221.943 156.397 221.596 155.992 221.24C154.372 219.816 152.859 218.274 151.466 216.628C151.117 216.216 150.776 215.798 150.442 215.374C150.297 215.19 150.034 214.818 150.616 215.602C150.54 215.499 150.46 215.397 150.383 215.295C150.197 215.049 150.013 214.801 149.832 214.551C149.199 213.676 148.597 212.779 148.026 211.861C146.736 209.782 145.611 207.606 144.659 205.353L144.986 206.125C143.429 202.427 142.364 198.54 141.819 194.566L141.935 195.425C141.443 191.761 141.436 188.049 141.914 184.383L141.799 185.242C142.288 181.692 143.245 178.222 144.643 174.922L144.317 175.694C145.196 173.628 146.234 171.633 147.42 169.726C148.014 168.772 148.644 167.841 149.309 166.933C149.46 166.727 149.612 166.522 149.767 166.318C149.907 166.134 150.291 165.675 149.635 166.485C149.699 166.406 149.761 166.324 149.825 166.244C150.189 165.782 150.563 165.328 150.946 164.881C152.394 163.188 153.963 161.601 155.64 160.134C156.064 159.763 156.495 159.4 156.932 159.045C157.131 158.883 157.331 158.723 157.532 158.565C157.612 158.502 157.694 158.44 157.774 158.376C156.913 159.061 157.535 158.563 157.73 158.416C158.631 157.742 159.557 157.101 160.506 156.495C162.616 155.147 164.836 153.979 167.143 153.003L166.37 153.328C169.717 151.925 184.546 148.612 187.244 148.974L186.384 148.858C190.348 149.411 194.223 150.48 197.909 152.038L197.136 151.712C199.004 152.505 200.819 153.415 202.571 154.439C203.446 154.951 204.304 155.491 205.145 156.059C205.543 156.328 205.936 156.603 206.326 156.884C206.52 157.024 206.714 157.166 206.906 157.31C207.013 157.389 207.119 157.47 207.226 157.55C207.674 157.886 206.609 157.064 207.079 157.435C208.651 158.669 210.145 160 211.551 161.421C212.241 162.123 212.908 162.847 213.551 163.594C213.88 163.977 214.203 164.366 214.52 164.76C214.677 164.956 215.212 165.665 214.556 164.796C214.716 165.009 214.878 165.22 215.037 165.433C216.4 167.276 217.61 169.226 218.656 171.264C219.43 172.771 221.67 173.333 223.082 172.423C223.808 171.977 224.334 171.269 224.55 170.446C224.766 169.623 224.656 168.748 224.243 168.004Z" fill="#be123c"/>
<path d="M186.549 220.72C186.215 220.736 185.884 220.648 185.602 220.47C185.319 220.291 185.099 220.03 184.97 219.722C184.841 219.414 184.81 219.074 184.881 218.748C184.952 218.422 185.122 218.125 185.367 217.899C185.408 217.736 185.438 217.618 185.479 217.455C185.464 217.42 185.449 217.384 185.434 217.349C183.933 213.775 174.356 223.738 173.942 227.097C173.759 228.581 173.836 230.086 174.169 231.545C171.067 224.787 169.456 217.442 169.445 210.008C169.445 208.142 169.548 206.278 169.756 204.425C169.928 202.905 170.166 201.396 170.471 199.897C172.134 191.769 175.704 184.149 180.888 177.666C183.853 177.831 186.451 177.38 186.702 171.642C186.747 170.621 187.505 169.738 187.672 168.732C187.389 168.769 187.101 168.792 186.818 168.811C186.73 168.816 186.637 168.82 186.549 168.825L186.516 168.826C186.205 168.84 185.896 168.764 185.628 168.607C185.359 168.45 185.141 168.219 185.001 167.941C184.861 167.663 184.804 167.351 184.837 167.042C184.871 166.733 184.993 166.44 185.189 166.198C185.311 166.048 185.434 165.898 185.556 165.748C185.742 165.516 185.932 165.289 186.118 165.058C186.139 165.036 186.159 165.013 186.178 164.988C186.391 164.724 186.605 164.465 186.818 164.2C186.429 163.597 185.905 163.091 185.287 162.722C183.148 161.471 180.197 162.338 178.651 164.27C177.102 166.202 176.809 168.913 177.348 171.327C177.877 173.381 178.752 175.33 179.937 177.091C179.821 177.239 179.7 177.383 179.584 177.531C177.464 180.254 175.615 183.178 174.066 186.261C174.504 182.842 169.144 170.494 167.071 167.878C164.581 164.736 159.475 166.107 159.036 170.09C159.032 170.129 159.027 170.167 159.023 170.206C159.331 170.379 159.633 170.563 159.928 170.758C160.298 171.005 160.585 171.358 160.751 171.771C160.917 172.184 160.955 172.637 160.858 173.072C160.762 173.506 160.536 173.901 160.211 174.206C159.886 174.51 159.476 174.709 159.036 174.777L158.991 174.784C154.869 180.66 168.082 195.955 171.39 192.521C169.833 196.926 168.856 201.515 168.485 206.171C168.274 208.919 168.287 211.678 168.522 214.424L168.508 214.326C167.773 208.347 155.166 199.457 151.485 200.198C149.364 200.624 147.275 200.527 147.597 202.663C147.603 202.697 147.608 202.732 147.613 202.766C148.185 202.998 148.741 203.266 149.279 203.567C149.587 203.741 149.888 203.925 150.183 204.12C150.554 204.367 150.841 204.72 151.007 205.133C151.173 205.546 151.21 205.999 151.114 206.433C151.017 206.868 150.792 207.263 150.467 207.567C150.142 207.871 149.732 208.07 149.292 208.138L149.246 208.145C149.214 208.15 149.186 208.155 149.154 208.159C147.278 214.605 161.191 225.009 169.649 221.698H169.654C170.492 225.336 171.707 228.876 173.278 232.263H186.224C186.271 232.119 186.312 231.971 186.354 231.827C185.156 231.903 183.953 231.831 182.772 231.614C183.732 230.437 184.693 229.251 185.654 228.074C185.675 228.052 185.695 228.029 185.714 228.005C186.201 227.402 186.693 226.805 187.18 226.202L187.18 226.202C187.206 224.355 186.994 222.513 186.549 220.721L186.549 220.72ZM171.724 191.599L171.73 191.59L171.724 191.608V191.599ZM168.856 217.412L168.745 217.162C168.749 216.981 168.749 216.801 168.745 216.615C168.745 216.564 168.735 216.513 168.735 216.462C168.777 216.782 168.814 217.102 168.861 217.422L168.856 217.412Z" fill="#be123c"/>
<path d="M41.0835 193.82C43.7039 193.82 45.8281 191.699 45.8281 189.082C45.8281 186.466 43.7039 184.344 41.0835 184.344C38.4631 184.344 36.3389 186.466 36.3389 189.082C36.3389 191.699 38.4631 193.82 41.0835 193.82Z" fill="#be123c"/>
<path d="M98.019 245.506C100.639 245.506 102.764 243.384 102.764 240.768C102.764 238.151 100.639 236.03 98.019 236.03C95.3987 236.03 93.2744 238.151 93.2744 240.768C93.2744 243.384 95.3987 245.506 98.019 245.506Z" fill="#be123c"/>
<path d="M314.115 245.506C316.735 245.506 318.859 243.384 318.859 240.768C318.859 238.151 316.735 236.03 314.115 236.03C311.494 236.03 309.37 238.151 309.37 240.768C309.37 243.384 311.494 245.506 314.115 245.506Z" fill="#be123c"/>
<path d="M325.761 185.206C328.382 185.206 330.506 183.085 330.506 180.468C330.506 177.851 328.382 175.73 325.761 175.73C323.141 175.73 321.017 177.851 321.017 180.468C321.017 183.085 323.141 185.206 325.761 185.206Z" fill="#be123c"/>
<path d="M311.958 141.273C314.579 141.273 316.703 139.152 316.703 136.535C316.703 133.919 314.579 131.798 311.958 131.798C309.338 131.798 307.214 133.919 307.214 136.535C307.214 139.152 309.338 141.273 311.958 141.273Z" fill="#be123c"/>
<path d="M113.978 180.468C113.976 181.678 113.507 182.841 112.669 183.716C111.832 184.591 110.69 185.11 109.479 185.168C108.268 185.225 107.082 184.815 106.166 184.023C105.249 183.231 104.673 182.118 104.555 180.913C104.438 179.709 104.789 178.505 105.536 177.552C106.282 176.599 107.367 175.969 108.566 175.792C109.765 175.615 110.986 175.905 111.977 176.603C112.967 177.3 113.652 178.351 113.888 179.538C113.949 179.844 113.979 180.156 113.978 180.468Z" fill="#be123c"/>
<path d="M208.871 155.056C211.491 155.056 213.615 152.935 213.615 150.318C213.615 147.702 211.491 145.581 208.871 145.581C206.25 145.581 204.126 147.702 204.126 150.318C204.126 152.935 206.25 155.056 208.871 155.056Z" fill="#be123c"/>
<path d="M161.855 150.318C161.853 151.528 161.384 152.691 160.546 153.566C159.709 154.441 158.567 154.961 157.356 155.018C156.145 155.075 154.959 154.665 154.043 153.873C153.126 153.081 152.55 151.968 152.432 150.764C152.315 149.559 152.666 148.356 153.413 147.402C154.159 146.449 155.244 145.819 156.443 145.642C157.642 145.465 158.863 145.755 159.854 146.453C160.844 147.15 161.529 148.201 161.765 149.388C161.826 149.694 161.856 150.006 161.855 150.318Z" fill="#be123c"/>
<path d="M100.607 136.536C100.605 137.746 100.136 138.909 99.2983 139.783C98.4608 140.658 97.3186 141.178 96.108 141.235C94.8974 141.292 93.7111 140.883 92.7946 140.091C91.8781 139.299 91.3016 138.185 91.1843 136.981C91.067 135.776 91.418 134.573 92.1645 133.619C92.9111 132.666 93.9962 132.036 95.1951 131.859C96.3941 131.682 97.6152 131.973 98.6058 132.67C99.5963 133.367 100.281 134.418 100.517 135.605C100.578 135.912 100.608 136.223 100.607 136.536Z" fill="#be123c"/>
<path d="M258.474 195.543C261.094 195.543 263.219 193.422 263.219 190.805C263.219 188.189 261.094 186.067 258.474 186.067C255.854 186.067 253.729 188.189 253.729 190.805C253.729 193.422 255.854 195.543 258.474 195.543Z" fill="#be123c"/>
<path d="M183.853 152.472C187.665 152.472 190.755 149.386 190.755 145.58C190.755 141.774 187.665 138.689 183.853 138.689C180.042 138.689 176.952 141.774 176.952 145.58C176.952 149.386 180.042 152.472 183.853 152.472Z" fill="#be123c"/>
<path d="M370.486 245.868L0.513573 246C0.446129 246 0.379344 245.987 0.317034 245.961C0.254724 245.935 0.198112 245.897 0.150422 245.85C0.102732 245.802 0.0648975 245.746 0.0390879 245.683C0.0132783 245.621 0 245.554 0 245.487C0 245.42 0.0132783 245.353 0.0390879 245.291C0.0648975 245.229 0.102732 245.172 0.150422 245.124C0.198112 245.077 0.254724 245.039 0.317034 245.013C0.379344 244.988 0.446129 244.974 0.513573 244.974L370.486 244.842C370.622 244.842 370.753 244.896 370.849 244.993C370.945 245.089 370.999 245.219 370.999 245.355C370.999 245.491 370.945 245.621 370.849 245.717C370.753 245.813 370.622 245.867 370.486 245.868Z" fill="#CACACA"/>
</g>
<defs>
<clipPath id="clip0_588_271">
<rect width="371" height="246" fill="white"/>
</clipPath>
</defs>
</svg>
